<?xml version="1.0" encoding="UTF-8"?>
<svg width="216px" height="216px" viewBox="0 0 216 216" version="1.1" xmlns="http://www.w3.org/2000/svg" xmlns:xlink="http://www.w3.org/1999/xlink">
    <!-- Generator: Sketch 47 (45396) - http://www.bohemiancoding.com/sketch -->
    <title>leaf</title>
    <desc>Created with Sketch.</desc>
    <defs>
        <polygon id="path-1" points="0 216 0 0 216 0 216 216"></polygon>
    </defs>
    <g id="Navigation" stroke="none" stroke-width="1" fill="none" fill-rule="evenodd">
        <g id="leaf">
            <g id="Page-1">
                <mask id="mask-2" fill="white">
                    <use xlink:href="#path-1"></use>
                </mask>
                <g id="Clip-2"></g>
                <path d="M202.054624,13.9290822 C201.96684,13.9290822 201.709649,13.9082673 201.457078,13.9317804 C184.258767,15.5279741 167.261434,18.2898017 150.55864,22.7491993 C129.246425,28.439759 108.985305,36.5752975 90.5945974,48.9412697 C76.2731309,58.5716257 63.9845526,70.2472373 54.8935381,85.094807 C45.6331163,100.219523 40.7826758,116.618959 40.4704272,134.350162 C40.2748388,145.459531 41.7251967,156.384265 44.5362037,167.115883 C45.8271647,172.044001 47.3995729,176.898496 48.8965179,181.961525 C49.8016922,181.365603 50.3926928,180.988236 50.971758,180.59391 C74.3014603,164.685937 93.7509644,144.771483 110.300908,122.040081 C117.50303,112.147997 123.727595,101.543581 130.433816,91.2876224 C131.230031,90.0703368 132.097858,88.7875228 133.228653,87.9252467 C135.69661,86.0441973 139.204882,86.3487115 141.393702,88.3615885 C143.999495,90.7568427 144.426093,94.1226876 142.475599,97.4873761 C131.858378,115.799854 119.991393,133.230398 106.044548,149.193491 C93.928072,163.062376 80.7516453,175.796848 65.9604584,186.806769 C64.2775504,188.059517 62.5761615,189.287596 60.5263326,190.78781 C64.0018784,191.55372 67.0562159,192.241768 70.1178688,192.897823 C85.2682763,196.145331 100.474126,196.915867 115.755054,193.852995 C130.717189,190.854109 143.760015,184.112783 154.83425,173.60319 C165.700577,163.291725 173.599964,150.901854 179.822604,137.383739 C189.29055,116.815929 194.512532,95.0416264 197.940721,72.7693082 C200.131466,58.5388615 201.39124,44.2155187 202.017663,29.8401386 C202.246363,24.5990263 202.054624,19.3394119 202.054624,13.9290822 M37.1608236,189.193158 C35.5807151,184.163663 33.942854,179.374697 32.5729645,174.51018 C28.1510476,158.808043 26.1231646,142.821436 27.4815036,126.512199 C28.9561176,108.810291 34.4449158,92.4154811 43.8108322,77.3127363 C51.6543926,64.6649921 61.7252746,54.0675147 73.3670248,44.9051083 C93.098361,29.3756582 115.445886,19.0796112 139.360429,11.947813 C160.137855,5.75191394 181.357281,1.94548723 202.969424,0.312674711 C205.077775,0.153479346 207.192287,0.0224226282 209.305259,0.000451354953 C213.232429,-0.0400220431 216.041126,2.64509882 215.999544,6.59144786 C215.912916,14.7478012 215.995309,22.9230422 215.450511,31.0531842 C214.601164,43.7302233 213.668268,56.4242228 212.0897,69.0253262 C209.073479,93.1016016 203.753703,116.647483 194.082853,139.035054 C186.885351,155.695446 177.448976,170.86449 164.17206,183.410858 C148.769082,197.967405 130.438821,206.190443 109.433465,208.563726 C90.1167917,210.746591 71.3418369,207.854478 52.8190681,202.557088 C51.895413,202.293433 50.8858992,202.1909 50.0600384,201.746464 C46.7161683,199.945976 43.9090115,200.948174 40.8192524,202.733244 C30.8923666,208.468903 20.3448339,212.792232 9.22516635,215.65428 C6.43533528,216.372008 3.79373565,216.065567 1.77663312,213.845312 C0.0740892375,211.970815 -0.4314377,209.680021 0.37555732,207.207289 C1.13596532,204.877949 2.78768699,203.441721 5.10818269,202.835777 C13.7160012,200.587383 21.8371586,197.100118 29.7762032,193.156467 C32.2410801,191.931858 34.6316489,190.556533 37.1608236,189.193158" id="Fill-1" fill="#50C878" mask="url(#mask-2)"></path>
            </g>
        </g>
    </g>
</svg>